<?xml version="1.0" standalone="no"?>
<!DOCTYPE svg PUBLIC "-//W3C//DTD SVG 20010904//EN"
 "http://www.w3.org/TR/2001/REC-SVG-20010904/DTD/svg10.dtd">
<svg version="1.0" xmlns="http://www.w3.org/2000/svg"
 width="355.000000pt" height="355.000000pt" viewBox="0 0 355.000000 355.000000"
 preserveAspectRatio="xMidYMid meet">
<metadata>
Created by potrace 1.14, written by Peter Selinger 2001-2017
</metadata>
<g transform="translate(0.000000,355.000000) scale(0.100000,-0.100000)"
fill="#000000" stroke="none">
<path d="M1650 3534 c-31 -7 -301 -136 -606 -288 -598 -298 -591 -294 -646
-405 -18 -37 -23 -63 -23 -131 0 -73 4 -93 28 -142 51 -104 64 -112 635 -397
290 -145 544 -270 565 -277 97 -34 220 -35 327 -1 25 8 280 132 568 276 568
284 591 298 639 400 38 80 38 193 2 271 -51 109 -63 117 -622 396 -282 141
-541 267 -577 281 -79 30 -207 38 -290 17z"/>
<path d="M532 2059 c-103 -59 -169 -184 -160 -303 7 -78 42 -157 94 -210 29
-29 161 -99 565 -302 290 -145 555 -273 589 -284 85 -29 222 -27 311 5 35 12
298 139 584 283 562 281 572 287 622 391 38 79 39 191 2 271 -29 63 -92 131
-147 159 l-37 19 -420 -210 c-231 -116 -449 -221 -484 -235 -153 -58 -347 -65
-501 -20 -56 17 -229 98 -510 239 -234 117 -432 216 -441 219 -10 5 -36 -4
-67 -22z"/>
<path d="M529 1127 c-60 -36 -123 -113 -141 -172 -7 -22 -13 -74 -13 -115 0
-139 67 -232 227 -312 496 -250 1016 -505 1028 -505 8 0 29 -4 45 -7 45 -10
153 -8 212 5 33 6 255 111 601 284 514 256 552 277 594 324 117 130 111 330
-13 451 -24 23 -59 50 -79 60 l-35 18 -450 -223 c-247 -122 -467 -228 -489
-235 -147 -48 -337 -50 -475 -5 -47 15 -218 94 -380 175 -163 82 -360 180
-437 219 l-142 70 -53 -32z"/>
</g>
</svg>
